<svg width="25" height="25" viewBox="0 0 25 25" fill="none" xmlns="http://www.w3.org/2000/svg">
<path d="M7.61987 9.34863L12.9199 12.4186L18.1799 9.36863" stroke="#111827" stroke-width="1.5" stroke-linecap="round" stroke-linejoin="round"/>
<path d="M12.9199 17.8587V12.4087" stroke="#111827" stroke-width="1.5" stroke-linecap="round" stroke-linejoin="round"/>
<path d="M11.6799 6.37872L8.47992 8.15872C7.75992 8.55872 7.15991 9.56872 7.15991 10.3987V13.7887C7.15991 14.6187 7.74992 15.6287 8.47992 16.0287L11.6799 17.8087C12.3599 18.1887 13.4799 18.1887 14.1699 17.8087L17.3699 16.0287C18.0899 15.6287 18.6899 14.6187 18.6899 13.7887V10.3887C18.6899 9.55873 18.0999 8.54872 17.3699 8.14872L14.1699 6.36872C13.4799 5.98872 12.3599 5.98872 11.6799 6.37872Z" stroke="#111827" stroke-width="1.5" stroke-linecap="round" stroke-linejoin="round"/>
<path d="M22.9199 15.0889C22.9199 18.9589 19.7899 22.0889 15.9199 22.0889L16.9699 20.3389" stroke="#111827" stroke-width="1.5" stroke-linecap="round" stroke-linejoin="round"/>
<path d="M2.91992 9.08887C2.91992 5.21887 6.04992 2.08887 9.91992 2.08887L8.86993 3.83887" stroke="#111827" stroke-width="1.5" stroke-linecap="round" stroke-linejoin="round"/>
</svg>
