<svg width="21" height="22" viewBox="0 0 21 22" fill="none" xmlns="http://www.w3.org/2000/svg">
<path d="M14 20.4062H7C3.80625 20.4062 1.96875 18.5688 1.96875 15.375V6.625C1.96875 3.43125 3.80625 1.59375 7 1.59375H14C17.1938 1.59375 19.0312 3.43125 19.0312 6.625V15.375C19.0312 18.5688 17.1938 20.4062 14 20.4062ZM7 2.90625C4.4975 2.90625 3.28125 4.1225 3.28125 6.625V15.375C3.28125 17.8775 4.4975 19.0938 7 19.0938H14C16.5025 19.0938 17.7188 17.8775 17.7188 15.375V6.625C17.7188 4.1225 16.5025 2.90625 14 2.90625H7Z" fill="#8B909A"/>
<path d="M7.875 10.2212C7.72625 10.2212 7.5775 10.195 7.4375 10.1338C7.035 9.95876 6.78125 9.565 6.78125 9.13625V2.25C6.78125 1.89125 7.07875 1.59375 7.4375 1.59375H13.5625C13.9212 1.59375 14.2188 1.89125 14.2188 2.25V9.12749C14.2188 9.56499 13.965 9.95875 13.5625 10.125C13.1687 10.3 12.705 10.2213 12.3813 9.92377L10.5 8.19999L8.61873 9.93253C8.40873 10.125 8.14625 10.2212 7.875 10.2212ZM10.5 6.80877C10.7625 6.80877 11.0337 6.90498 11.2437 7.09748L12.9062 8.62873V2.90625H8.09375V8.62873L9.75627 7.09748C9.96627 6.90498 10.2375 6.80877 10.5 6.80877Z" fill="#8B909A"/>
<path d="M15.3125 13.4062H11.5938C11.235 13.4062 10.9375 13.1087 10.9375 12.75C10.9375 12.3913 11.235 12.0938 11.5938 12.0938H15.3125C15.6712 12.0938 15.9688 12.3913 15.9688 12.75C15.9688 13.1087 15.6712 13.4062 15.3125 13.4062Z" fill="#8B909A"/>
<path d="M15.3125 16.9062H7.875C7.51625 16.9062 7.21875 16.6087 7.21875 16.25C7.21875 15.8913 7.51625 15.5938 7.875 15.5938H15.3125C15.6713 15.5938 15.9688 15.8913 15.9688 16.25C15.9688 16.6087 15.6713 16.9062 15.3125 16.9062Z" fill="#8B909A"/>
</svg>
