<svg width="23" height="22" viewBox="0 0 23 22" fill="none" xmlns="http://www.w3.org/2000/svg">
<path d="M18.948 14.8811V17.0717C18.948 18.7628 17.5723 20.1384 15.8812 20.1384H7.11902C5.42791 20.1384 4.05225 18.7628 4.05225 17.0717V16.5021C4.05225 15.1264 5.17381 14.0049 6.54947 14.0049H18.0718C18.5537 14.0049 18.948 14.3992 18.948 14.8811Z" fill="#194A7A"/>
<path d="M14.5669 2.61377H8.43335C4.92847 2.61377 4.05225 3.48999 4.05225 6.99487V13.6366C4.71817 13.0496 5.59439 12.6903 6.54947 12.6903H18.0718C18.5537 12.6903 18.948 12.296 18.948 11.8141V6.99487C18.948 3.48999 18.0718 2.61377 14.5669 2.61377ZM12.3763 10.2807H7.99524C7.63599 10.2807 7.33807 9.98279 7.33807 9.62354C7.33807 9.26428 7.63599 8.96637 7.99524 8.96637H12.3763C12.7356 8.96637 13.0335 9.26428 13.0335 9.62354C13.0335 9.98279 12.7356 10.2807 12.3763 10.2807ZM15.005 7.21393H7.99524C7.63599 7.21393 7.33807 6.91601 7.33807 6.55676C7.33807 6.19751 7.63599 5.8996 7.99524 5.8996H15.005C15.3643 5.8996 15.6622 6.19751 15.6622 6.55676C15.6622 6.91601 15.3643 7.21393 15.005 7.21393Z" fill="#194A7A"/>
</svg>
