<svg width="23" height="23" viewBox="0 0 23 23" fill="none" xmlns="http://www.w3.org/2000/svg">
<path d="M11.2496 13.0525C11.1304 13.0525 11.0112 13.025 10.9012 12.9608L2.80708 8.27666C2.47708 8.08416 2.36706 7.66247 2.55956 7.33247C2.75206 7.00247 3.16456 6.89245 3.50373 7.08495L11.2496 11.5675L18.9496 7.11248C19.2796 6.91998 19.7012 7.03916 19.8937 7.36C20.0862 7.69 19.9671 8.11163 19.6462 8.30413L11.6071 12.9608C11.4879 13.0158 11.3687 13.0525 11.2496 13.0525Z" fill="white"/>
<path d="M11.25 21.3581C10.8742 21.3581 10.5625 21.0465 10.5625 20.6706V12.3564C10.5625 11.9806 10.8742 11.6689 11.25 11.6689C11.6258 11.6689 11.9375 11.9806 11.9375 12.3564V20.6706C11.9375 21.0465 11.6258 21.3581 11.25 21.3581Z" fill="white"/>
<path d="M11.25 21.7155C10.4433 21.7155 9.63663 21.5414 9.0133 21.1839L4.1183 18.4706C2.78914 17.7372 1.74414 15.9681 1.74414 14.4464V9.25802C1.74414 7.73636 2.78914 5.9764 4.1183 5.2339L9.0133 2.52055C10.26 1.82388 12.2216 1.82388 13.4775 2.52055L18.3725 5.2339C19.7016 5.96723 20.7466 7.73636 20.7466 9.25802V14.4464C20.7466 14.5106 20.7466 14.6022 20.7191 14.7214C20.6641 14.9597 20.49 15.1522 20.2608 15.2255C20.0316 15.2989 19.775 15.2531 19.5916 15.0881C18.5466 14.1714 16.915 14.1347 15.7966 15.0239C15.0908 15.5831 14.6783 16.4355 14.6783 17.343C14.6783 17.8839 14.825 18.4156 15.1091 18.8739C15.1825 19.0022 15.2558 19.103 15.3383 19.1947C15.4758 19.3505 15.5308 19.5614 15.4941 19.763C15.4575 19.9647 15.3291 20.1481 15.1458 20.2397L13.4683 21.1656C12.8541 21.5414 12.0566 21.7155 11.25 21.7155ZM11.25 3.38222C10.6816 3.38222 10.1041 3.50139 9.69162 3.73055L4.79663 6.44391C3.90746 6.93891 3.13746 8.24969 3.13746 9.25802V14.4464C3.13746 15.4547 3.91663 16.7747 4.79663 17.2606L9.69162 19.9739C10.5258 20.4414 11.9833 20.4414 12.8175 19.9739L13.8441 19.4055C13.505 18.7914 13.3216 18.0764 13.3216 17.343C13.3216 16.0047 13.9175 14.7672 14.9533 13.9422C16.2091 12.9431 17.9875 12.7322 19.3808 13.3372V9.24891C19.3808 8.24057 18.6016 6.92057 17.7216 6.43473L12.8266 3.72138C12.3958 3.50138 11.8183 3.38222 11.25 3.38222Z" fill="white"/>
<path d="M17.6667 21.7152C15.265 21.7152 13.3125 19.7627 13.3125 17.361C13.3125 16.0227 13.9083 14.7851 14.9442 13.9601C15.7142 13.346 16.6858 13.0068 17.6667 13.0068C20.0683 13.0068 22.0208 14.9593 22.0208 17.361C22.0208 18.6077 21.48 19.7993 20.5358 20.6243C19.7383 21.3302 18.7208 21.7152 17.6667 21.7152ZM17.6667 14.3818C16.9883 14.3818 16.3467 14.611 15.8058 15.0418C15.1 15.601 14.6875 16.4535 14.6875 17.361C14.6875 19.0018 16.0258 20.3402 17.6667 20.3402C18.3817 20.3402 19.0783 20.0743 19.6375 19.5977C20.2792 19.0293 20.6458 18.2227 20.6458 17.361C20.6458 15.7202 19.3075 14.3818 17.6667 14.3818Z" fill="white"/>
<path d="M16.7497 18.9653C16.5206 18.9653 16.2914 18.8462 16.1631 18.6353C15.9706 18.3053 16.0714 17.8837 16.4014 17.6912L17.2172 17.2053V16.2153C17.2172 15.8395 17.5289 15.5278 17.9047 15.5278C18.2806 15.5278 18.5922 15.8395 18.5922 16.2153V17.5903C18.5922 17.8287 18.4639 18.0578 18.2622 18.177L17.1164 18.8645C16.9881 18.9378 16.8689 18.9653 16.7497 18.9653Z" fill="white"/>
</svg>
