<svg width="55" height="55" viewBox="0 0 55 55" fill="none" xmlns="http://www.w3.org/2000/svg">
<path d="M52.4813 40.9517C52.5265 42.6482 52.0742 44.2541 51.2599 45.6339C50.8075 46.4481 50.1968 47.1946 49.5182 47.8053C47.9575 49.2529 45.8992 50.1351 43.6147 50.2029C40.3123 50.2708 37.3945 48.5744 35.7886 45.9732C34.9291 44.6387 34.4088 43.0328 34.3862 41.3364C34.3184 38.4864 35.585 35.9078 37.6207 34.2114C39.1588 32.9447 41.104 32.1531 43.2302 32.1078C48.229 31.9947 52.3682 35.953 52.4813 40.9517Z" stroke="#4A9725" stroke-width="3.39283" stroke-miterlimit="10" stroke-linecap="round" stroke-linejoin="round"/>
<path d="M39.9052 41.2239L42.1898 43.3952L46.9171 38.8262" stroke="#4A9725" stroke-width="3.39283" stroke-linecap="round" stroke-linejoin="round"/>
<path d="M7.62816 17.2695L27.6006 28.8277L47.4373 17.3373" stroke="#4A9725" stroke-width="3.39283" stroke-linecap="round" stroke-linejoin="round"/>
<path d="M27.6006 49.321V28.8057" stroke="#4A9725" stroke-width="3.39283" stroke-linecap="round" stroke-linejoin="round"/>
<path d="M49.3373 21.1831V33.9854C49.3373 34.0985 49.3373 34.1889 49.3147 34.302C47.7314 32.9222 45.6957 32.108 43.4338 32.108C41.3076 32.108 39.3398 32.8544 37.7791 34.0985C35.6981 35.7497 34.3862 38.3056 34.3862 41.1556C34.3862 42.852 34.8612 44.4579 35.6981 45.815C35.9017 46.1769 36.1505 46.5163 36.4219 46.8329L32.2827 49.1174C29.7041 50.5651 25.497 50.5651 22.9185 49.1174L10.84 42.4222C8.1031 40.9067 5.86388 37.1068 5.86388 33.9854V21.1831C5.86388 18.0617 8.1031 14.2617 10.84 12.7463L22.9185 6.05104C25.497 4.60343 29.7041 4.60343 32.2827 6.05104L44.3612 12.7463C47.098 14.2617 49.3373 18.0617 49.3373 21.1831Z" stroke="#4A9725" stroke-width="3.39283" stroke-linecap="round" stroke-linejoin="round"/>
</svg>
