<svg width="23" height="20" viewBox="0 0 23 20" fill="none" xmlns="http://www.w3.org/2000/svg">
<path d="M19.2199 6.00885V11.1589C19.2199 14.2389 17.4599 15.5588 14.8199 15.5588H6.02988C5.57988 15.5588 5.14988 15.5189 4.74988 15.4289C4.49988 15.3889 4.25989 15.3189 4.03989 15.2389C2.53989 14.6789 1.62988 13.3789 1.62988 11.1589V6.00885C1.62988 2.92885 3.38988 1.60889 6.02988 1.60889H14.8199C17.0599 1.60889 18.6699 2.55888 19.0999 4.72888C19.1699 5.12888 19.2199 5.53885 19.2199 6.00885Z" stroke="#8E8E8E" stroke-width="1.5" stroke-miterlimit="10" stroke-linecap="round" stroke-linejoin="round"/>
<path d="M22.221 9.00897V14.159C22.221 17.239 20.461 18.559 17.821 18.559H9.03098C8.29098 18.559 7.62099 18.459 7.04099 18.239C5.85099 17.799 5.04098 16.889 4.75098 15.429C5.15098 15.519 5.58098 15.559 6.03098 15.559H14.821C17.461 15.559 19.221 14.239 19.221 11.159V6.00897C19.221 5.53897 19.181 5.119 19.101 4.729C21.001 5.129 22.221 6.46897 22.221 9.00897Z" stroke="#8E8E8E" stroke-width="1.5" stroke-miterlimit="10" stroke-linecap="round" stroke-linejoin="round"/>
<path d="M10.4183 11.2288C11.8764 11.2288 13.0583 10.0468 13.0583 8.58875C13.0583 7.13071 11.8764 5.94873 10.4183 5.94873C8.9603 5.94873 7.77832 7.13071 7.77832 8.58875C7.77832 10.0468 8.9603 11.2288 10.4183 11.2288Z" stroke="#8E8E8E" stroke-width="1.5" stroke-miterlimit="10" stroke-linecap="round" stroke-linejoin="round"/>
<path d="M4.69995 6.38867V10.7887" stroke="#8E8E8E" stroke-width="1.5" stroke-miterlimit="10" stroke-linecap="round" stroke-linejoin="round"/>
<path d="M16.1416 6.38916V10.7892" stroke="#8E8E8E" stroke-width="1.5" stroke-miterlimit="10" stroke-linecap="round" stroke-linejoin="round"/>
</svg>
