<svg width="29" height="25" viewBox="0 0 29 25" fill="none" xmlns="http://www.w3.org/2000/svg">
<rect x="0.75" y="0.405273" width="28" height="24" rx="8" fill="#0F60FF"/>
<path d="M16.1742 4.40527H22.75V8.84906H21.5178C19.3772 8.84906 17.9159 8.51598 17.1339 7.8498C16.4941 7.30118 16.1742 6.41556 16.1742 5.19293V4.40527ZM7.75 10.7797C7.75 7.25919 10.6039 4.40527 14.1244 4.40527V10.8476H15.8756C17.5324 10.8476 18.8756 12.1907 18.8756 13.8476V13.9159H14.1244V14.0074C14.1244 17.5278 11.2705 20.3818 7.75 20.3818V10.7797ZM16.1623 19.2649C16.1623 17.6426 17.1102 16.5414 19.0059 15.9615C19.7326 15.742 20.6686 15.6323 21.814 15.6323H22.75V20.4053H16.1623V19.2649Z" fill="white"/>
</svg>
