<svg width="15" height="16" viewBox="0 0 15 16" fill="none" xmlns="http://www.w3.org/2000/svg">
<path d="M1.25 2.11133H2.3375C3.0125 2.11133 3.54375 2.69258 3.4875 3.36133L2.96875 9.58632C2.88125 10.6051 3.6875 11.4801 4.7125 11.4801H11.3688C12.2688 11.4801 13.0563 10.7426 13.125 9.84883L13.4625 5.16133C13.5375 4.12383 12.75 3.28008 11.7062 3.28008H3.6375" stroke="white" stroke-width="0.9375" stroke-miterlimit="10" stroke-linecap="round" stroke-linejoin="round"/>
<path d="M10.1562 14.6113C10.5877 14.6113 10.9375 14.2616 10.9375 13.8301C10.9375 13.3986 10.5877 13.0488 10.1562 13.0488C9.72478 13.0488 9.375 13.3986 9.375 13.8301C9.375 14.2616 9.72478 14.6113 10.1562 14.6113Z" stroke="white" stroke-width="0.9375" stroke-miterlimit="10" stroke-linecap="round" stroke-linejoin="round"/>
<path d="M5.15625 14.6113C5.58772 14.6113 5.9375 14.2616 5.9375 13.8301C5.9375 13.3986 5.58772 13.0488 5.15625 13.0488C4.72478 13.0488 4.375 13.3986 4.375 13.8301C4.375 14.2616 4.72478 14.6113 5.15625 14.6113Z" stroke="white" stroke-width="0.9375" stroke-miterlimit="10" stroke-linecap="round" stroke-linejoin="round"/>
<path d="M5.625 5.86133H13.125" stroke="white" stroke-width="0.9375" stroke-miterlimit="10" stroke-linecap="round" stroke-linejoin="round"/>
</svg>
