<svg width="21" height="22" viewBox="0 0 21 22" fill="none" xmlns="http://www.w3.org/2000/svg">
<path d="M18.3842 10.3174V14.2461C18.3842 18.1749 16.8179 19.7499 12.8804 19.7499H8.16419C7.65669 19.7499 7.19291 19.7237 6.76416 19.6624" stroke="#8B909A" stroke-width="1.3125" stroke-linecap="round" stroke-linejoin="round"/>
<path d="M2.66016 14.0799V10.3174" stroke="#8B909A" stroke-width="1.3125" stroke-linecap="round" stroke-linejoin="round"/>
<path d="M10.5262 11C12.1274 11 13.3087 9.6963 13.1512 8.09505L12.5649 2.25H8.47865L7.89242 8.09505C7.73492 9.6963 8.92493 11 10.5262 11Z" stroke="#8B909A" stroke-width="1.3125" stroke-linecap="round" stroke-linejoin="round"/>
<path d="M16.0385 11C17.806 11 19.101 9.56498 18.926 7.80623L18.681 5.39998C18.366 3.12498 17.491 2.25 15.1985 2.25H12.5298L13.1423 8.38376C13.2998 9.82751 14.5948 11 16.0385 11Z" stroke="#8B909A" stroke-width="1.3125" stroke-linecap="round" stroke-linejoin="round"/>
<path d="M4.96083 11C6.40458 11 7.70832 9.82751 7.84832 8.38376L8.04084 6.45004L8.46083 2.25H5.79209C3.49959 2.25 2.6246 3.12498 2.3096 5.39998L2.06458 7.80623C1.88958 9.56498 3.19333 11 4.96083 11Z" stroke="#8B909A" stroke-width="1.3125" stroke-linecap="round" stroke-linejoin="round"/>
<path d="M7.875 17.125C7.875 17.7812 7.69124 18.4026 7.36749 18.9276C7.20124 19.2076 6.99998 19.4613 6.76373 19.6625C6.73748 19.6975 6.71125 19.7238 6.67625 19.75C6.06375 20.3012 5.25875 20.625 4.375 20.625C3.3075 20.625 2.35372 20.1437 1.72372 19.3912C1.70622 19.365 1.68002 19.3475 1.66252 19.3213C1.55752 19.1988 1.46126 19.0676 1.38251 18.9276C1.05876 18.4026 0.875 17.7812 0.875 17.125C0.875 16.0225 1.3825 15.0338 2.1875 14.395C2.33625 14.2725 2.49373 14.1675 2.65998 14.08C3.16748 13.7913 3.75375 13.625 4.375 13.625C5.25 13.625 6.03748 13.94 6.64998 14.4737C6.75498 14.5525 6.85124 14.6488 6.93874 14.745C7.51624 15.375 7.875 16.2063 7.875 17.125Z" stroke="#8B909A" stroke-width="1.3125" stroke-miterlimit="10" stroke-linecap="round" stroke-linejoin="round"/>
<path d="M5.67877 17.1074H3.07129" stroke="#8B909A" stroke-width="1.3125" stroke-miterlimit="10" stroke-linecap="round" stroke-linejoin="round"/>
</svg>
