<svg width="25" height="25" viewBox="0 0 25 25" fill="none" xmlns="http://www.w3.org/2000/svg">
<path d="M21.9199 6.06885C18.5899 5.73885 15.2399 5.56885 11.8999 5.56885C9.91992 5.56885 7.93992 5.66885 5.95992 5.86885L3.91992 6.06885" stroke="#8F8F8F" stroke-width="1.5" stroke-linecap="round" stroke-linejoin="round"/>
<path d="M9.41992 5.05887L9.63992 3.74887C9.79992 2.79887 9.91992 2.08887 11.6099 2.08887H14.2299C15.9199 2.08887 16.0499 2.83887 16.1999 3.75887L16.4199 5.05887" stroke="#8F8F8F" stroke-width="1.5" stroke-linecap="round" stroke-linejoin="round"/>
<path d="M19.7698 9.229L19.1198 19.299C19.0098 20.869 18.9198 22.089 16.1298 22.089H9.70982C6.91982 22.089 6.82982 20.869 6.71982 19.299L6.06982 9.229" stroke="#8F8F8F" stroke-width="1.5" stroke-linecap="round" stroke-linejoin="round"/>
<path d="M11.25 16.5889H14.58" stroke="#8F8F8F" stroke-width="1.5" stroke-linecap="round" stroke-linejoin="round"/>
<path d="M10.4199 12.5889H15.4199" stroke="#8F8F8F" stroke-width="1.5" stroke-linecap="round" stroke-linejoin="round"/>
</svg>
